<svg width="24" height="24" viewBox="0 0 24 24" fill="none" xmlns="http://www.w3.org/2000/svg">
<path fill-rule="evenodd" clip-rule="evenodd" d="M5.47032 5.47015C5.61094 5.3297 5.80157 5.25081 6.00032 5.25081C6.19907 5.25081 6.38969 5.3297 6.53032 5.47015L12.0003 10.9402L17.4703 5.47015C17.539 5.39647 17.6218 5.33736 17.7138 5.29637C17.8058 5.25538 17.9051 5.23334 18.0058 5.23156C18.1065 5.22979 18.2065 5.24831 18.2999 5.28603C18.3933 5.32375 18.4781 5.3799 18.5494 5.45112C18.6206 5.52233 18.6767 5.60717 18.7144 5.70056C18.7522 5.79394 18.7707 5.89397 18.7689 5.99468C18.7671 6.09538 18.7451 6.19469 18.7041 6.28669C18.6631 6.37869 18.604 6.46149 18.5303 6.53015L13.0603 12.0002L18.5303 17.4702C18.604 17.5388 18.6631 17.6216 18.7041 17.7136C18.7451 17.8056 18.7671 17.9049 18.7689 18.0056C18.7707 18.1063 18.7522 18.2064 18.7144 18.2998C18.6767 18.3931 18.6206 18.478 18.5494 18.5492C18.4781 18.6204 18.3933 18.6766 18.2999 18.7143C18.2065 18.752 18.1065 18.7705 18.0058 18.7687C17.9051 18.767 17.8058 18.7449 17.7138 18.7039C17.6218 18.6629 17.539 18.6038 17.4703 18.5302L12.0003 13.0602L6.53032 18.5302C6.38814 18.6626 6.2001 18.7348 6.00579 18.7313C5.81149 18.7279 5.62611 18.6492 5.48869 18.5118C5.35128 18.3744 5.27257 18.189 5.26914 17.9947C5.26571 17.8004 5.33784 17.6123 5.47032 17.4702L10.9403 12.0002L5.47032 6.53015C5.32987 6.38953 5.25098 6.1989 5.25098 6.00015C5.25098 5.8014 5.32987 5.61078 5.47032 5.47015Z" fill="white"/>
</svg>
