<svg width="271" height="54" viewBox="0 0 271 54" fill="none" xmlns="http://www.w3.org/2000/svg">
<path fill-rule="evenodd" clip-rule="evenodd" d="M42.1263 13.3135C40.8455 11.9245 39.3065 11.2227 37.5107 11.2081C35.7165 11.1959 34.1367 11.8111 32.7761 13.0576C31.5077 14.219 30.8427 15.5858 30.7758 17.161C30.7504 17.7364 30.792 18.2719 30.8973 18.7668C31.0656 19.556 30.6036 20.3412 29.8203 20.5435L29.7127 20.5711C28.7064 20.8316 27.7485 20.011 27.8554 18.9798L28.7079 10.7607C28.8278 8.96486 28.8086 7.55823 28.6518 6.54463C28.4934 5.5318 28.2551 4.67372 27.933 3.97194C27.1466 2.25885 25.8959 1.08207 24.1877 0.44847C22.4757 -0.186658 20.8368 -0.146819 19.2724 0.565689C17.5512 1.35021 16.4058 2.59212 15.8369 4.28989C15.2703 5.98688 15.3695 7.67392 16.1382 9.34946C16.8547 10.9101 17.9532 11.9635 19.4354 12.5136C19.9773 12.7151 20.5001 12.8423 21.0051 12.8944C21.81 12.9787 22.4165 13.659 22.3681 14.4642L22.3612 14.5745C22.2989 15.6088 21.2196 16.2631 20.2687 15.8432L12.6889 12.4952C11.0123 11.8264 9.66393 11.4104 8.64842 11.2449C7.63292 11.0825 6.74041 11.0426 5.9709 11.1315C4.09287 11.3475 2.58384 12.1688 1.45072 13.5931C0.315288 15.0212 -0.153643 16.5872 0.0439225 18.2895C0.260707 20.1635 1.09171 21.633 2.53618 22.6964C3.98064 23.7575 5.62113 24.1857 7.45764 23.9743C9.16886 23.7774 10.5126 23.0618 11.4958 21.8268C11.8556 21.3755 12.1385 20.9189 12.3445 20.4562C12.6735 19.7191 13.5107 19.3545 14.2641 19.6494L14.3678 19.69C15.3357 20.0693 15.627 21.2943 14.9321 22.0651L9.39487 28.2148C8.23868 29.597 7.42459 30.7469 6.95335 31.6586C6.48442 32.5703 6.17077 33.4047 6.0178 34.1608C5.64342 36.0072 5.96091 37.692 6.9695 39.2059C7.98039 40.7228 9.32952 41.6506 11.0154 41.99C12.8711 42.3631 14.5293 42.0299 15.9914 40.9894C17.4505 39.9483 18.3661 38.5255 18.7312 36.7197C19.0718 35.0373 18.8042 33.5418 17.9294 32.2286C17.6104 31.7483 17.2614 31.3392 16.8839 31.0005C16.282 30.4612 16.1928 29.5548 16.7071 28.932L16.7778 28.8461C17.4382 28.0463 18.6974 28.149 19.2186 29.0453L23.3759 36.1942C24.3376 37.7173 25.1832 38.8442 25.9074 39.5721C26.6331 40.2984 27.3319 40.8531 28.0068 41.2323C29.6535 42.1578 31.3593 42.3769 33.1151 41.8889C34.8747 41.4001 36.1777 40.4079 37.0226 38.9147C37.952 37.2714 38.1465 35.5958 37.6053 33.8889C37.0626 32.1842 35.9879 30.8772 34.3774 29.9724C32.8768 29.1296 31.367 28.9205 29.8433 29.3441C29.286 29.4981 28.7879 29.7027 28.3481 29.9555C27.647 30.3593 26.7553 30.1639 26.3194 29.4836L26.2595 29.3901C25.6998 28.5167 26.1872 27.3552 27.2035 27.1377L35.3106 25.4062C37.061 24.9649 38.3979 24.5121 39.3165 24.0509C40.2336 23.5874 40.9793 23.097 41.5497 22.5745C42.9419 21.2997 43.6776 19.7513 43.7552 17.9356C43.8321 16.1168 43.2878 14.5753 42.1239 13.3135H42.1263ZM249.063 53.9997C246.3 53.9997 244.139 52.1909 244.139 49.4274C244.139 46.6136 245.998 45.2067 248.209 45.2067C249.917 45.2067 250.872 46.1614 251.676 47.0156C252.53 47.9703 253.083 48.2215 253.887 48.2215C254.791 48.2215 255.344 47.3673 255.545 45.8599C255.545 44.9053 254.741 42.1418 253.635 38.8255L247.455 20.7371C246.35 17.4209 245.094 16.5667 243.034 16.5667V15.1096H259.112V16.5667C255.997 16.5667 255.997 17.4711 257.002 20.8376L260.067 31.3389H260.419L263.735 20.7874C264.79 17.4209 264.89 16.5667 261.926 16.5667V15.1096H270.92V16.5667C268.91 16.5667 267.704 17.4209 266.599 20.7371L259.363 42.6442C256.952 49.9298 254.49 53.6983 249.063 53.9997ZM240.209 36.2128V1.44281L239.054 0.488139L227.196 6.56787L227.849 7.82401C231.115 6.1659 231.165 6.96983 231.165 10.4368V36.2128C231.165 39.6797 230.411 40.6847 227.145 40.6847V42.1418H244.229V40.6847C240.913 40.6847 240.209 39.6797 240.209 36.2128ZM224.505 29.7803H226.414C226.414 38.6738 224.103 42.9447 217.923 42.9447C213.049 42.9447 210.185 40.3319 210.185 32.6443V17.9224H206.919V15.2594C210.737 15.0081 214.908 12.7471 216.064 7.32054H218.978V15.1086H224.857V17.9224H219.179V32.2424C219.179 35.9103 220.033 37.8699 221.641 37.8699C223.6 37.8699 224.505 35.1064 224.505 29.7803ZM189.656 40.9862C190.912 41.8404 192.972 42.9458 196.238 42.9458C201.162 42.9458 205.584 40.3832 205.584 34.4542C205.584 29.8819 202.971 27.6711 198.348 24.5056C194.429 21.7923 193.424 21.0889 193.424 19.3806C193.424 18.0239 194.329 16.9688 196.037 16.9688C199.353 16.9688 202.167 20.084 203.122 23.9027H204.529L204.076 14.4565H202.67L202.167 15.6624C201.866 16.3156 201.363 16.4663 200.66 15.9638C199.554 15.1097 197.695 14.1048 195.183 14.1048C190.359 14.1048 186.239 17.1195 186.239 22.4958C186.239 25.7115 187.847 28.073 192.62 31.2888C197.444 34.5547 198.298 35.2582 198.298 36.9665C198.298 38.9764 197.193 40.0315 195.183 40.0315C191.163 40.0315 188.149 36.1626 187.294 30.8366H185.837L186.34 42.3428H187.747L188.249 41.2877C188.551 40.6345 189.003 40.534 189.656 40.9862ZM181.872 31.0878H183.329C181.872 39.3783 178.104 42.9458 171.974 42.9458C165.291 42.9458 160.568 38.1724 160.568 29.1282C160.568 21.3401 164.889 14.1048 172.376 14.1048C180.315 14.1048 183.128 20.486 183.128 27.5706H169.462C169.713 33.8011 171.672 36.9665 175.843 36.9665C178.003 36.9665 180.616 35.5094 181.872 31.0878ZM172.225 16.9688C169.864 16.9688 169.462 19.3303 169.411 24.7568H174.536C174.536 19.481 174.386 16.9688 172.225 16.9688ZM127.154 40.6839V42.1411H142.68V40.6839C140.369 40.6839 139.866 39.679 139.866 36.2121V23.2487C141.625 20.4852 143.233 19.5808 144.64 19.5808C146.197 19.5808 146.901 20.7364 146.901 22.9975V36.2121C146.901 39.679 146.398 40.6839 144.087 40.6839V42.1411H159.412V40.6839C156.548 40.6839 155.945 39.679 155.945 36.2121V22.4448C155.945 16.365 153.131 14.0537 149.513 14.0537C145.293 14.0537 142.479 16.7168 140.017 20.3344H139.866V14.9582L138.359 13.8025L127.054 18.4251L127.657 19.8822C130.722 18.6261 130.822 19.5305 130.822 23.3492V36.2121C130.822 39.679 130.169 40.6839 127.154 40.6839ZM112.109 42.9458C103.618 42.9458 98.5431 37.6197 98.5431 28.676C98.5431 19.9835 103.618 14.1048 112.109 14.1048C120.551 14.1048 125.676 19.4308 125.676 28.3243C125.676 37.0168 120.551 42.9458 112.109 42.9458ZM113.064 39.7803C115.576 39.7803 116.33 36.0119 116.33 32.9469C116.33 26.1135 114.823 17.2702 111.155 17.2702C108.642 17.2702 107.889 21.0387 107.889 24.1036C107.889 30.9371 109.396 39.7803 113.064 39.7803ZM77.8363 36.2126V23.2492C79.5949 20.4857 81.1525 19.5813 82.5594 19.5813C84.117 19.5813 84.8707 20.6365 84.8707 22.8473V36.2126C84.8707 39.6796 84.3682 40.6845 82.1072 40.6845V42.1416H97.4321V40.6845C94.5178 40.6845 93.9149 39.6796 93.9149 36.2126V22.4453C93.9149 16.3656 91.1011 14.0543 87.4834 14.0543C83.2628 14.0543 80.4491 16.7173 77.987 20.335H77.8363V1.49288L76.8816 0.487966L64.9231 6.96966L65.5763 8.27604C68.7921 6.51744 68.7921 7.32138 68.7921 10.7883L68.8423 36.2126C68.8423 39.6796 68.1389 40.6845 65.1241 40.6845V42.1416H80.65V40.6845C78.3387 40.6845 77.8363 39.6796 77.8363 36.2126Z" fill="black"/>
</svg>
