<svg width="151" height="31" viewBox="0 0 151 31" fill="none" xmlns="http://www.w3.org/2000/svg">
<path fill-rule="evenodd" clip-rule="evenodd" d="M23.4795 7.42039C22.7657 6.64621 21.9079 6.25506 20.907 6.24695C19.9069 6.24012 19.0264 6.58301 18.2681 7.27776C17.5611 7.92512 17.1905 8.68691 17.1532 9.56486C17.1391 9.88554 17.1622 10.184 17.2209 10.4599C17.3147 10.8997 17.0572 11.3374 16.6206 11.4501L16.5606 11.4655C15.9998 11.6107 15.4659 11.1533 15.5255 10.5786L16.0006 5.99758C16.0675 4.99665 16.0568 4.21265 15.9694 3.64771C15.8811 3.0832 15.7483 2.60494 15.5687 2.2138C15.1304 1.25899 14.4333 0.6031 13.4813 0.249959C12.5271 -0.104036 11.6136 -0.081831 10.7417 0.315293C9.78233 0.752555 9.14392 1.44475 8.82685 2.39101C8.51107 3.33685 8.56635 4.27713 8.99481 5.21101C9.39414 6.08084 10.0064 6.66799 10.8325 6.97458C11.1346 7.08689 11.4259 7.15777 11.7074 7.18681C12.156 7.23378 12.4941 7.61297 12.4671 8.06176L12.4632 8.12325C12.4285 8.69972 11.827 9.06439 11.297 8.83039L7.07229 6.96434C6.13781 6.59155 5.38628 6.35968 4.82028 6.26745C4.25428 6.17692 3.75683 6.15472 3.32794 6.20425C2.2812 6.32467 1.44013 6.78243 0.808571 7.57625C0.175729 8.3722 -0.0856347 9.24502 0.0244807 10.1938C0.145308 11.2383 0.608478 12.0573 1.41356 12.65C2.21865 13.2415 3.13299 13.4802 4.15659 13.3623C5.11035 13.2526 5.85931 12.8537 6.40731 12.1654C6.60784 11.9139 6.76551 11.6594 6.88034 11.4014C7.06372 10.9907 7.53032 10.7874 7.95021 10.9518L8.00806 10.9744C8.54749 11.1858 8.70988 11.8686 8.32255 12.2982L5.23632 15.7258C4.59191 16.4962 4.13817 17.1371 3.87552 17.6453C3.61416 18.1534 3.43934 18.6184 3.35408 19.0399C3.14542 20.069 3.32237 21.008 3.88452 21.8518C4.44795 22.6973 5.1999 23.2144 6.13952 23.4035C7.17384 23.6115 8.09803 23.4257 8.91297 22.8459C9.7262 22.2656 10.2365 21.4726 10.44 20.4661C10.6298 19.5284 10.4807 18.6949 9.99313 17.963C9.81532 17.6952 9.6208 17.4672 9.41042 17.2784C9.07493 16.9778 9.02523 16.4727 9.31187 16.1255L9.35129 16.0777C9.71934 15.6319 10.4212 15.6891 10.7117 16.1887L13.0288 20.1732C13.5648 21.0221 14.0361 21.6502 14.4397 22.0559C14.8442 22.4607 15.2337 22.7699 15.6099 22.9812C16.5276 23.4971 17.4784 23.6192 18.457 23.3472C19.4378 23.0747 20.164 22.5218 20.6349 21.6895C21.1529 20.7736 21.2613 19.8397 20.9597 18.8883C20.6572 17.9382 20.0582 17.2097 19.1606 16.7054C18.3242 16.2357 17.4827 16.1191 16.6335 16.3552C16.3228 16.4411 16.0452 16.5551 15.8001 16.696C15.4094 16.921 14.9123 16.8121 14.6694 16.433L14.636 16.3809C14.3241 15.8941 14.5957 15.2467 15.1621 15.1254L19.6807 14.1604C20.6563 13.9144 21.4014 13.6621 21.9134 13.405C22.4246 13.1467 22.8402 12.8734 23.1581 12.5821C23.9341 11.8716 24.3441 11.0086 24.3874 9.99657C24.4302 8.98283 24.1269 8.12368 23.4782 7.42039H23.4795ZM138.818 30.0974C137.278 30.0974 136.073 29.0893 136.073 27.549C136.073 25.9807 137.109 25.1966 138.342 25.1966C139.294 25.1966 139.826 25.7287 140.274 26.2047C140.75 26.7368 141.058 26.8769 141.506 26.8769C142.01 26.8769 142.318 26.4008 142.43 25.5606C142.43 25.0285 141.982 23.4883 141.366 21.6399L137.922 11.5582C137.306 9.70986 136.605 9.23378 135.457 9.23378V8.42163H144.419V9.23378C142.682 9.23378 142.682 9.73786 143.243 11.6142L144.951 17.4672H145.147L146.995 11.5862C147.583 9.70986 147.639 9.23378 145.987 9.23378V8.42163H151V9.23378C149.88 9.23378 149.208 9.70986 148.592 11.5582L144.559 23.7683C143.215 27.829 141.842 29.9294 138.818 30.0974ZM133.883 20.1836V0.804228L133.239 0.272135L126.63 3.66073L126.994 4.36085C128.814 3.43669 128.842 3.88477 128.842 5.81711V20.1836C128.842 22.116 128.422 22.6761 126.602 22.6761V23.4882H136.123V22.6761C134.275 22.6761 133.883 22.116 133.883 20.1836ZM125.131 16.5987H126.196C126.196 21.5555 124.907 23.9359 121.463 23.9359C118.746 23.9359 117.15 22.4797 117.15 18.1949V9.98951H115.33V8.50525C117.458 8.36522 119.782 7.105 120.427 4.08047H122.051V8.42123H125.327V9.98951H122.163V17.9709C122.163 20.0153 122.639 21.1075 123.535 21.1075C124.627 21.1075 125.131 19.5672 125.131 16.5987ZM105.707 22.8443C106.407 23.3204 107.555 23.9365 109.375 23.9365C112.12 23.9365 114.584 22.5082 114.584 19.2037C114.584 16.6552 113.128 15.423 110.552 13.6587C108.367 12.1464 107.807 11.7544 107.807 10.8022C107.807 10.0461 108.311 9.45796 109.263 9.45796C111.112 9.45796 112.68 11.1943 113.212 13.3226H113.996L113.744 8.05771H112.96L112.68 8.72983C112.512 9.09389 112.232 9.17791 111.84 8.89786C111.224 8.42177 110.187 7.86168 108.787 7.86168C106.099 7.86168 103.802 9.54197 103.802 12.5385C103.802 14.3308 104.698 15.647 107.359 17.4394C110.047 19.2597 110.524 19.6517 110.524 20.6039C110.524 21.7241 109.907 22.3122 108.787 22.3122C106.547 22.3122 104.867 20.1558 104.39 17.1873H103.578L103.858 23.6004H104.642L104.923 23.0123C105.091 22.6483 105.343 22.5923 105.707 22.8443ZM101.369 17.3273H102.181C101.369 21.9481 99.2685 23.9365 95.8519 23.9365C92.1273 23.9365 89.4948 21.276 89.4948 16.2351C89.4948 11.8944 91.9033 7.86168 96.076 7.86168C100.501 7.86168 102.069 11.4183 102.069 15.367H94.4517C94.5917 18.8396 95.6839 20.6039 98.0083 20.6039C99.2125 20.6039 100.669 19.7918 101.369 17.3273ZM95.992 9.45796C94.6757 9.45796 94.4517 10.7742 94.4237 13.7987H97.2802C97.2802 10.8582 97.1962 9.45796 95.992 9.45796ZM70.8711 22.6759V23.488H79.5246V22.6759C78.2364 22.6759 77.9564 22.1158 77.9564 20.1834V12.9582C78.9365 11.4179 79.8327 10.9138 80.6168 10.9138C81.485 10.9138 81.8771 11.5579 81.8771 12.8181V20.1834C81.8771 22.1158 81.597 22.6759 80.3088 22.6759V23.488H88.8503V22.6759C87.254 22.6759 86.9179 22.1158 86.9179 20.1834V12.5101C86.9179 9.1215 85.3497 7.83327 83.3333 7.83327C80.9809 7.83327 79.4126 9.31753 78.0404 11.3339H77.9564V8.33736L77.1162 7.69324L70.8151 10.2697L71.1512 11.0818C72.8595 10.3817 72.9155 10.8858 72.9155 13.0142V20.1834C72.9155 22.1158 72.5514 22.6759 70.8711 22.6759ZM62.4856 23.9365C57.7527 23.9365 54.9243 20.968 54.9243 15.9831C54.9243 11.1383 57.7527 7.86168 62.4856 7.86168C67.1904 7.86168 70.0469 10.8302 70.0469 15.7871C70.0469 20.6319 67.1904 23.9365 62.4856 23.9365ZM63.0177 22.1722C64.4179 22.1722 64.838 20.0718 64.838 18.3635C64.838 14.5548 63.9978 9.62599 61.9535 9.62599C60.5532 9.62599 60.1332 11.7264 60.1332 13.4347C60.1332 17.2433 60.9733 22.1722 63.0177 22.1722ZM43.3835 20.1836V12.9584C44.3637 11.4181 45.2318 10.914 46.016 10.914C46.8841 10.914 47.3042 11.5021 47.3042 12.7343V20.1836C47.3042 22.116 47.0241 22.6761 45.7639 22.6761V23.4882H54.3054V22.6761C52.6811 22.6761 52.3451 22.116 52.3451 20.1836V12.5103C52.3451 9.12169 50.7768 7.83346 48.7604 7.83346C46.408 7.83346 44.8398 9.31772 43.4675 11.3341H43.3835V0.832234L42.8514 0.272135L36.1862 3.88477L36.5503 4.6129C38.3426 3.63272 38.3426 4.0808 38.3426 6.01314L38.3706 20.1836C38.3706 22.116 37.9786 22.6761 36.2983 22.6761V23.4882H44.9518V22.6761C43.6636 22.6761 43.3835 22.116 43.3835 20.1836Z" fill="black"/>
</svg>
