<svg width="26" height="25" viewBox="0 0 26 25" fill="none" xmlns="http://www.w3.org/2000/svg">
<path fill-rule="evenodd" clip-rule="evenodd" d="M4.116 24.9554C3.87789 24.932 3.64081 24.8991 3.40533 24.8567C3.23239 24.8257 3.07067 24.7497 2.93644 24.6364C2.80222 24.523 2.70023 24.3763 2.64076 24.211C2.58128 24.0457 2.56641 23.8676 2.59764 23.6947C2.62887 23.5218 2.70511 23.3602 2.81867 23.2262C3.36568 22.5814 3.73922 21.8077 3.904 20.9784C3.93467 20.825 3.87467 20.5557 3.56533 20.2544C1.36533 18.1146 0 15.2121 0 11.9991C0 5.29292 5.904 0 13 0C20.096 0 26 5.29292 26 11.9991C26 18.7052 20.096 23.9981 13 23.9981C11.8893 23.9981 10.8093 23.8688 9.77733 23.6262C8.09046 24.6862 6.09841 25.1539 4.116 24.9554Z" fill="black"/>
</svg>
