<svg width="29" height="28" viewBox="0 0 29 28" fill="none" xmlns="http://www.w3.org/2000/svg">
<path d="M27.8516 8.84583C27.0049 7.92294 25.9874 7.45665 24.8001 7.44698C23.6139 7.43884 22.5694 7.8476 21.6698 8.67581C20.8312 9.44752 20.3916 10.3557 20.3473 11.4023C20.3306 11.7845 20.358 12.1404 20.4276 12.4692C20.5389 12.9935 20.2335 13.5153 19.7156 13.6497L19.6444 13.668C18.9791 13.8411 18.3458 13.2959 18.4165 12.6107L18.9801 7.1497C19.0594 5.9565 19.0467 5.0219 18.943 4.34844C18.8383 3.67548 18.6808 3.10535 18.4678 2.63907C17.9479 1.50085 17.121 0.718955 15.9916 0.297976C14.8598 -0.124021 13.7762 -0.0975507 12.7419 0.37586C11.6039 0.89712 10.8466 1.72228 10.4705 2.85032C10.0959 3.97785 10.1615 5.09876 10.6698 6.21204C11.1434 7.24896 11.8697 7.9489 12.8496 8.31439C13.2079 8.44827 13.5536 8.53277 13.8875 8.56739C14.4196 8.62338 14.8206 9.07541 14.7886 9.61042L14.784 9.68372C14.7429 10.3709 14.0293 10.8057 13.4006 10.5267L8.38924 8.30218C7.28074 7.85778 6.38927 7.58137 5.71788 7.47142C5.04648 7.3635 4.4564 7.33703 3.94764 7.39608C2.70599 7.53963 1.7083 8.08532 0.959136 9.03164C0.208451 9.98049 -0.101581 11.021 0.0290392 12.1521C0.172366 13.3972 0.721783 14.3735 1.67678 15.0801C2.63179 15.7851 3.71639 16.0697 4.9306 15.9292C6.06196 15.7984 6.95038 15.3229 7.60043 14.5023C7.83829 14.2025 8.02533 13.8991 8.16154 13.5916C8.37907 13.1019 8.93255 12.8596 9.43064 13.0556L9.49925 13.0826C10.1391 13.3346 10.3318 14.1485 9.87231 14.6606L6.21139 18.7467C5.44698 19.665 4.90874 20.4291 4.59719 21.0349C4.28715 21.6406 4.07979 22.195 3.97865 22.6974C3.73113 23.9242 3.94104 25.0436 4.60786 26.0495C5.27621 27.0574 6.16819 27.6738 7.28278 27.8993C8.50969 28.1472 9.60599 27.9258 10.5727 27.2345C11.5373 26.5427 12.1427 25.5974 12.3841 24.3976C12.6092 23.2798 12.4324 22.2861 11.854 21.4136C11.643 21.0944 11.4123 20.8226 11.1628 20.5976C10.7648 20.2392 10.7058 19.637 11.0459 19.2232L11.0926 19.1662C11.5292 18.6347 12.3617 18.703 12.7063 19.2985L15.4549 24.0484C16.0907 25.0604 16.6498 25.8092 17.1286 26.2928C17.6084 26.7754 18.0704 27.1439 18.5166 27.3959C19.6053 28.0108 20.7331 28.1564 21.8939 27.8321C23.0573 27.5074 23.9188 26.8482 24.4774 25.856C25.0918 24.7641 25.2204 23.6509 24.8626 22.5167C24.5038 21.3841 23.7933 20.5157 22.7285 19.9145C21.7364 19.3545 20.7382 19.2156 19.7308 19.4971C19.3623 19.5994 19.033 19.7353 18.7423 19.9033C18.2788 20.1715 17.6892 20.0417 17.401 19.5897L17.3614 19.5276C16.9914 18.9473 17.3136 18.1756 17.9855 18.031L23.3455 16.8806C24.5028 16.5874 25.3866 16.2865 25.994 15.9801C26.6003 15.6721 27.0933 15.3463 27.4704 14.9992C28.3909 14.1521 28.8773 13.1233 28.9286 11.9169C28.9794 10.7084 28.6196 9.68423 27.8501 8.84583H27.8516Z" fill="black"/>
</svg>
