<svg width="82" height="90" viewBox="0 0 82 90" fill="none" xmlns="http://www.w3.org/2000/svg">
<path d="M71.6261 32.5939L67.5732 25.4193L77.6377 19.7339L81.6175 26.7791L80.0647 27.6562L77.0514 22.322L74.4634 23.784L77.1924 28.615L75.6827 29.4678L72.9537 24.6368L70.0925 26.2531L73.1789 31.7167L71.6261 32.5939Z" fill="black"/>
<path d="M63.4862 21.3986C61.2157 19.3794 60.7075 16.8944 62.1218 15.0804L63.6396 16.4302C62.9413 17.4887 63.2784 18.8492 64.6604 20.0782C65.7833 21.0768 66.7597 21.1717 67.4072 20.4436C68.0107 19.7649 67.7215 19.0216 67.1129 18.0162L66.0792 16.3457C65.3417 15.1373 64.1573 13.2885 65.6607 11.5979C66.9227 10.1789 69.0167 10.1848 70.9294 11.8857C73.0148 13.7403 73.3489 16.0484 71.8359 17.9734L70.3304 16.6346C71.1356 15.6049 71.0015 14.3144 69.7058 13.1622C68.7557 12.3172 67.7875 12.1634 67.195 12.8298C66.5256 13.5825 67.1137 14.437 67.7114 15.4547L68.6573 17.0251C69.5387 18.494 70.427 20.0795 68.9785 21.7084C67.5848 23.2755 65.4606 23.1543 63.4862 21.3986Z" fill="black"/>
<path d="M56.2281 15.8503L54.4668 14.9423L59.7637 4.66797L61.525 5.57601L56.2281 15.8503Z" fill="black"/>
<path d="M40.8497 11.7184L38.8847 11.4626L40.377 0L42.8005 0.315503L45.2014 9.88697L49.9564 1.24709L52.38 1.56259L50.8877 13.0252L48.9227 12.7694L49.9737 4.69644L45.7459 12.3558L44.0265 12.132L41.8986 3.66185L40.8497 11.7184Z" fill="black"/>
<path d="M30.6034 13.8183C27.3672 14.9189 24.3815 13.4227 23.1958 9.93633C22.0685 6.62195 23.3606 3.54872 26.7219 2.40552C29.9737 1.29953 32.9697 2.77481 34.1395 6.21427C35.2774 9.55992 33.9803 12.6697 30.6034 13.8183ZM30.0239 12.1142C32.2126 11.3697 33.0723 9.33312 32.2322 6.86297C31.4027 4.42408 29.4849 3.34956 27.2961 4.09397C25.123 4.83307 24.2736 6.84874 25.1031 9.28763C25.9432 11.7578 27.8507 12.8533 30.0239 12.1142Z" fill="black"/>
<path d="M17.1589 21.7308L15.6705 23.0391L8.03906 14.3569L12.2809 10.6284C13.9305 9.17846 15.9547 9.18012 17.2302 10.6313C18.1678 11.6979 18.1853 13.2436 17.2934 14.5552C17.9621 14.1653 18.6766 14.1528 19.3563 14.5008L23.0999 16.5088L21.5124 17.9042L18.0983 16.0462C17.6691 15.8079 17.2203 15.8726 16.8234 16.2215L14.2807 18.4564L17.1589 21.7308ZM10.7049 14.3882L13.1251 17.1417L15.8042 14.7869C16.722 13.9801 16.6155 12.9085 15.9505 12.1519C15.2528 11.3581 14.2273 11.292 13.3839 12.0334L10.7049 14.3882Z" fill="black"/>
<path d="M11.1056 30.2875L10.1487 32.0227L0.0263672 26.4409L2.85715 21.3074C3.99744 19.2396 6.06493 18.7391 7.87249 19.7358C9.91142 20.8602 10.3736 22.963 9.32099 24.8718L7.44709 28.2701L11.1056 30.2875ZM2.54499 25.5669L5.88536 27.4089L7.71142 24.0974C8.30947 23.0129 7.81067 22.0024 6.89966 21.5C5.94526 20.9737 4.92125 21.2576 4.37104 22.2554L2.54499 25.5669Z" fill="black"/>
<path d="M9.97667 57.8871L14.1386 64.999L4.16211 70.8374L0.0751996 63.8538L1.61444 62.953L4.70881 68.2406L7.27421 66.7393L4.47176 61.9506L5.96824 61.0748L8.77069 65.8635L11.6069 64.2037L8.43744 58.7879L9.97667 57.8871Z" fill="black"/>
<path d="M18.2876 68.9566C20.5887 70.9409 21.1348 73.4178 19.7484 75.2532L18.2102 73.9268C18.8922 72.8577 18.5344 71.5026 17.1338 70.2948C15.9957 69.3134 15.018 69.2335 14.3817 69.9713C13.7886 70.6592 14.0891 71.398 14.7131 72.3939L15.7721 74.0485C16.528 75.2454 17.7405 77.076 16.2631 78.7893C15.0229 80.2275 12.929 80.2535 10.9906 78.582C8.87711 76.7595 8.50782 74.4568 9.99129 72.5089L11.517 73.8245C10.7276 74.8664 10.8814 76.1547 12.1945 77.287C13.1575 78.1174 14.1278 78.2564 14.7102 77.581C15.368 76.8182 14.7669 75.9728 14.1538 74.9643L13.184 73.4085C12.2802 71.9532 11.3678 70.3815 12.7913 68.7307C14.1609 67.1425 16.2867 67.2312 18.2876 68.9566Z" fill="black"/>
<path d="M25.6291 74.3934L27.4041 75.2744L22.2646 85.6284L20.4897 84.7474L25.6291 74.3934Z" fill="black"/>
<path d="M41.07 78.2901L43.0387 78.5159L41.7217 90L39.2936 89.7215L36.7469 80.1878L32.1243 88.8993L29.6962 88.6209L31.0133 77.1368L32.982 77.3626L32.0544 85.4506L36.1647 77.7276L37.8873 77.9251L40.1443 86.3618L41.07 78.2901Z" fill="black"/>
<path d="M51.283 76.0344C54.502 74.8845 57.5102 76.3349 58.749 79.8028C59.9268 83.0996 58.6818 86.1922 55.3384 87.3866C52.1038 88.5421 49.0856 87.1127 47.8634 83.6915C46.6746 80.3636 47.924 77.2344 51.283 76.0344ZM51.8885 77.7295C49.7114 78.5072 48.8829 80.5567 49.7606 83.0138C50.6273 85.4397 52.5613 86.4848 54.7384 85.7071C56.9 84.9349 57.7185 82.9065 56.8518 80.4805C55.9741 78.0235 54.0501 76.9573 51.8885 77.7295Z" fill="black"/>
<path d="M64.6046 67.9171L66.0728 66.5863L73.8359 75.1509L69.6515 78.9437C68.0242 80.4187 66.0003 80.448 64.7027 79.0164C63.749 77.9642 63.7079 76.419 64.5796 75.094C63.917 75.494 63.2027 75.5174 62.5178 75.1798L58.744 73.2293L60.3101 71.8097L63.752 73.6154C64.1849 73.8471 64.6327 73.7755 65.0242 73.4206L67.5324 71.1472L64.6046 67.9171ZM71.17 75.1603L68.708 72.4441L66.0652 74.8396C65.1598 75.6602 65.2826 76.7301 65.9591 77.4765C66.6689 78.2595 67.6952 78.3099 68.5272 77.5558L71.17 75.1603Z" fill="black"/>
<path d="M70.5254 59.2693L71.4557 57.5197L81.6621 62.9463L78.91 68.1224C77.8015 70.2074 75.7419 70.7395 73.9193 69.7704C71.8634 68.6773 71.3692 66.5817 72.3925 64.6571L74.2143 61.2307L70.5254 59.2693ZM79.1571 63.8587L75.789 62.0679L74.0137 65.4069C73.4323 66.5004 73.9465 67.5032 74.8651 67.9916C75.8274 68.5032 76.8469 68.2037 77.3819 67.1977L79.1571 63.8587Z" fill="black"/>
</svg>
