<svg width="44" height="44" viewBox="0 0 44 44" fill="none" xmlns="http://www.w3.org/2000/svg">
<path fill-rule="evenodd" clip-rule="evenodd" d="M0.875 22C0.875 10.3325 10.3325 0.875 22 0.875C33.6675 0.875 43.125 10.3325 43.125 22C43.125 33.6675 33.6675 43.125 22 43.125C10.3325 43.125 0.875 33.6675 0.875 22ZM31.2603 19.8702C31.6399 20.0814 31.9561 20.3902 32.1762 20.7647C32.3963 21.1392 32.5124 21.5656 32.5124 22C32.5124 22.4344 32.3963 22.8608 32.1762 23.2353C31.9561 23.6098 31.6399 23.9186 31.2603 24.1298L19.1205 30.8747C18.7495 31.0806 18.3313 31.1861 17.907 31.1808C17.4828 31.1755 17.0673 31.0595 16.7016 30.8444C16.3359 30.6293 16.0327 30.3224 15.8219 29.9542C15.6112 29.586 15.5002 29.1691 15.5 28.7448V15.2552C15.5 13.3983 17.4955 12.2218 19.1205 13.1253L31.2603 19.8702Z" fill="black"/>
</svg>
