<svg width="44" height="44" viewBox="0 0 44 44" fill="none" xmlns="http://www.w3.org/2000/svg">
<path fill-rule="evenodd" clip-rule="evenodd" d="M0.875 22C0.875 10.3325 10.3325 0.875 22 0.875C33.6675 0.875 43.125 10.3325 43.125 22C43.125 33.6675 33.6675 43.125 22 43.125C10.3325 43.125 0.875 33.6675 0.875 22ZM15.5 13.875C15.069 13.875 14.6557 14.0462 14.351 14.351C14.0462 14.6557 13.875 15.069 13.875 15.5V28.5C13.875 29.397 14.603 30.125 15.5 30.125H17.125C17.556 30.125 17.9693 29.9538 18.274 29.649C18.5788 29.3443 18.75 28.931 18.75 28.5V15.5C18.75 15.069 18.5788 14.6557 18.274 14.351C17.9693 14.0462 17.556 13.875 17.125 13.875H15.5ZM26.875 13.875C26.444 13.875 26.0307 14.0462 25.726 14.351C25.4212 14.6557 25.25 15.069 25.25 15.5V28.5C25.25 29.397 25.978 30.125 26.875 30.125H28.5C28.931 30.125 29.3443 29.9538 29.649 29.649C29.9538 29.3443 30.125 28.931 30.125 28.5V15.5C30.125 15.069 29.9538 14.6557 29.649 14.351C29.3443 14.0462 28.931 13.875 28.5 13.875H26.875Z" fill="black"/>
</svg>
