<svg width="25" height="25" viewBox="0 0 25 25" fill="none" xmlns="http://www.w3.org/2000/svg">
<path fill-rule="evenodd" clip-rule="evenodd" d="M3.27436 24.8587C3.78038 24.9533 4.29355 25.0007 4.80769 25C6.43265 25.0023 8.02511 24.5266 9.40128 23.628C10.3936 23.8707 11.4321 24 12.5 24C19.3231 24 25 18.7067 25 12C25 5.29333 19.3231 0 12.5 0C5.67692 0 0 5.29333 0 12C0 15.212 1.3141 18.116 3.42821 20.256C3.72564 20.5573 3.78333 20.8267 3.75385 20.98C3.59541 21.8094 3.23623 22.5831 2.71026 23.228C2.60106 23.3621 2.52776 23.5237 2.49773 23.6966C2.4677 23.8695 2.482 24.0475 2.53919 24.2129C2.59638 24.3782 2.69444 24.5249 2.8235 24.6383C2.95257 24.7517 3.10807 24.8277 3.27436 24.8587ZM7.69231 10.5C7.30978 10.5 6.94293 10.658 6.67244 10.9393C6.40196 11.2206 6.25 11.6022 6.25 12C6.25 12.3978 6.40196 12.7794 6.67244 13.0607C6.94293 13.342 7.30978 13.5 7.69231 13.5C8.07483 13.5 8.44169 13.342 8.71217 13.0607C8.98266 12.7794 9.13462 12.3978 9.13462 12C9.13462 11.6022 8.98266 11.2206 8.71217 10.9393C8.44169 10.658 8.07483 10.5 7.69231 10.5ZM11.0577 12C11.0577 11.6022 11.2097 11.2206 11.4801 10.9393C11.7506 10.658 12.1175 10.5 12.5 10.5C12.8825 10.5 13.2494 10.658 13.5199 10.9393C13.7904 11.2206 13.9423 11.6022 13.9423 12C13.9423 12.3978 13.7904 12.7794 13.5199 13.0607C13.2494 13.342 12.8825 13.5 12.5 13.5C12.1175 13.5 11.7506 13.342 11.4801 13.0607C11.2097 12.7794 11.0577 12.3978 11.0577 12ZM17.3077 10.5C16.9252 10.5 16.5583 10.658 16.2878 10.9393C16.0173 11.2206 15.8654 11.6022 15.8654 12C15.8654 12.3978 16.0173 12.7794 16.2878 13.0607C16.5583 13.342 16.9252 13.5 17.3077 13.5C17.6902 13.5 18.0571 13.342 18.3276 13.0607C18.598 12.7794 18.75 12.3978 18.75 12C18.75 11.6022 18.598 11.2206 18.3276 10.9393C18.0571 10.658 17.6902 10.5 17.3077 10.5Z" fill="black"/>
</svg>
