<svg width="155" height="32" viewBox="0 0 155 32" fill="none" xmlns="http://www.w3.org/2000/svg">
<path fill-rule="evenodd" clip-rule="evenodd" d="M24.4796 8.26511C23.7537 7.47779 22.8814 7.08001 21.8635 7.07176C20.8465 7.06481 19.951 7.41352 19.1798 8.12007C18.4608 8.77841 18.0839 9.55314 18.046 10.446C18.0316 10.7721 18.0551 11.0757 18.1148 11.3562C18.2102 11.8035 17.9484 12.2486 17.5044 12.3633L17.4433 12.3789C16.873 12.5265 16.33 12.0614 16.3906 11.4769L16.8738 6.81815C16.9418 5.80023 16.9309 5.00292 16.842 4.42839C16.7523 3.85429 16.6172 3.36792 16.4346 2.97013C15.9889 1.99912 15.2799 1.33209 14.3117 0.972953C13.3413 0.612948 12.4123 0.63553 11.5256 1.0394C10.55 1.48408 9.90071 2.18802 9.57827 3.15035C9.25713 4.11225 9.31334 5.0685 9.74908 6.01823C10.1552 6.90283 10.7779 7.49994 11.618 7.81174C11.9252 7.92595 12.2215 7.99804 12.5077 8.02757C12.964 8.07534 13.3078 8.46097 13.2803 8.91738L13.2764 8.97991C13.2411 9.56617 12.6293 9.93703 12.0903 9.69905L7.79392 7.80132C6.84357 7.42221 6.07929 7.1864 5.50368 7.0926C4.92807 7.00054 4.42218 6.97795 3.986 7.02833C2.92149 7.15079 2.06614 7.61632 1.42386 8.42362C0.780274 9.23309 0.514474 10.1207 0.626459 11.0857C0.749337 12.1479 1.22037 12.9808 2.03912 13.5835C2.85788 14.185 3.78774 14.4278 4.82872 14.3079C5.79867 14.1963 6.56034 13.7907 7.11765 13.0907C7.32158 12.8349 7.48193 12.5761 7.59871 12.3138C7.7852 11.896 8.25972 11.6893 8.68675 11.8565L8.74557 11.8795C9.29417 12.0945 9.45931 12.7888 9.0654 13.2257L5.92678 16.7115C5.27143 17.495 4.80998 18.1468 4.54288 18.6636C4.27707 19.1803 4.09929 19.6533 4.01258 20.0819C3.80038 21.1284 3.98034 22.0834 4.55203 22.9415C5.12502 23.8013 5.88974 24.3272 6.84532 24.5196C7.89719 24.7311 8.83708 24.5422 9.66585 23.9525C10.4929 23.3623 11.0118 22.5559 11.2188 21.5323C11.4119 20.5787 11.2602 19.731 10.7643 18.9867C10.5835 18.7144 10.3857 18.4825 10.1717 18.2905C9.83056 17.9848 9.78001 17.4711 10.0715 17.118L10.1116 17.0694C10.4859 16.616 11.1997 16.6742 11.4951 17.1823L13.8516 21.2344C14.3967 22.0977 14.876 22.7365 15.2864 23.1491C15.6978 23.5608 16.0939 23.8752 16.4764 24.0901C17.4098 24.6147 18.3767 24.7389 19.3719 24.4623C20.3693 24.1852 21.1079 23.6229 21.5868 22.7765C22.1136 21.845 22.2238 20.8952 21.9171 19.9277C21.6094 18.9615 21.0003 18.2206 20.0874 17.7077C19.2368 17.2301 18.3811 17.1115 17.5174 17.3517C17.2015 17.4389 16.9192 17.5549 16.6699 17.6982C16.2725 17.9271 15.7671 17.8163 15.52 17.4307L15.486 17.3777C15.1688 16.8826 15.4451 16.2243 16.0211 16.101L20.6164 15.1195C21.6086 14.8694 22.3663 14.6128 22.887 14.3513C23.4069 14.0886 23.8295 13.8107 24.1528 13.5145C24.942 12.7919 25.359 11.9142 25.403 10.885C25.4466 9.85408 25.1381 8.98035 24.4783 8.26511H24.4796ZM141.774 31.3241C140.208 31.3241 138.983 30.2988 138.983 28.7324C138.983 27.1375 140.037 26.34 141.29 26.34C142.258 26.34 142.799 26.8811 143.255 27.3653C143.739 27.9064 144.053 28.0488 144.508 28.0488C145.021 28.0488 145.334 27.5647 145.448 26.7103C145.448 26.1691 144.992 24.6027 144.366 22.723L140.863 12.4701C140.236 10.5904 139.524 10.1062 138.357 10.1062V9.28029H147.47V10.1062C145.704 10.1062 145.704 10.6189 146.274 12.527L148.011 18.4794H148.211L150.09 12.4986C150.689 10.5904 150.746 10.1062 149.065 10.1062V9.28029H154.163V10.1062C153.024 10.1062 152.34 10.5904 151.714 12.4701L147.613 24.8875C146.246 29.0172 144.85 31.1532 141.774 31.3241ZM136.757 21.2422V1.53379L136.102 0.992659L129.38 4.43878L129.751 5.15079C131.602 4.21094 131.63 4.66662 131.63 6.63177V21.2422C131.63 23.2073 131.203 23.7769 129.352 23.7769V24.6029H139.035V23.7769C137.155 23.7769 136.757 23.2073 136.757 21.2422ZM127.855 17.5951H128.938C128.938 22.6361 127.628 25.057 124.124 25.057C121.362 25.057 119.739 23.576 119.739 19.2185V10.8737H117.887V9.36429C120.052 9.22188 122.416 7.94027 123.071 4.86439H124.723V9.27884H128.055V10.8737H124.836V18.9906C124.836 21.0697 125.321 22.1804 126.232 22.1804C127.343 22.1804 127.855 20.614 127.855 17.5951ZM108.102 23.9487C108.814 24.4329 109.982 25.0594 111.833 25.0594C114.624 25.0594 117.131 23.6069 117.131 20.2463C117.131 17.6546 115.65 16.4014 113.03 14.6072C110.808 13.0692 110.238 12.6705 110.238 11.7022C110.238 10.9332 110.751 10.3351 111.719 10.3351C113.599 10.3351 115.194 12.1009 115.735 14.2654H116.533L116.276 8.91109H115.479L115.194 9.59462C115.023 9.96486 114.738 10.0503 114.34 9.7655C113.713 9.28133 112.659 8.71173 111.235 8.71173C108.501 8.71173 106.166 10.4205 106.166 13.4679C106.166 15.2907 107.077 16.6293 109.783 18.452C112.517 20.3032 113.001 20.702 113.001 21.6703C113.001 22.8095 112.375 23.4076 111.235 23.4076C108.957 23.4076 107.248 21.2146 106.764 18.1957H105.938L106.223 24.7177H107.02L107.305 24.1196C107.476 23.7493 107.732 23.6924 108.102 23.9487ZM103.691 18.3381H104.517C103.691 23.0373 101.555 25.0594 98.0808 25.0594C94.2929 25.0594 91.6157 22.3538 91.6157 17.2274C91.6157 12.8129 94.065 8.71173 98.3086 8.71173C102.809 8.71173 104.403 12.3287 104.403 16.3445H96.6567C96.7991 19.876 97.9099 21.6703 100.274 21.6703C101.498 21.6703 102.979 20.8444 103.691 18.3381ZM98.2232 10.3351C96.8846 10.3351 96.6567 11.6737 96.6283 14.7496H99.5333C99.5333 11.7591 99.4478 10.3351 98.2232 10.3351ZM72.6747 23.7769V24.6028H81.4751V23.7769C80.165 23.7769 79.8802 23.2073 79.8802 21.2421V13.8942C80.877 12.3278 81.7884 11.8151 82.5858 11.8151C83.4687 11.8151 83.8674 12.4702 83.8674 13.7518V21.2421C83.8674 23.2073 83.5826 23.7769 82.2725 23.7769V24.6028H90.9591V23.7769C89.3357 23.7769 88.9939 23.2073 88.9939 21.2421V13.4385C88.9939 9.99238 87.399 8.68229 85.3484 8.68229C82.9561 8.68229 81.3612 10.1917 79.9656 12.2423H79.8802V9.19494L79.0258 8.53989L72.6177 11.1601L72.9595 11.986C74.6968 11.274 74.7537 11.7866 74.7537 13.9512V21.2421C74.7537 23.2073 74.3835 23.7769 72.6747 23.7769ZM64.1469 25.0594C59.3337 25.0594 56.4572 22.0405 56.4572 16.971C56.4572 12.0439 59.3337 8.71173 64.1469 8.71173C68.9316 8.71173 71.8366 11.7306 71.8366 16.7717C71.8366 21.6988 68.9316 25.0594 64.1469 25.0594ZM64.688 23.2652C66.112 23.2652 66.5392 21.1292 66.5392 19.3919C66.5392 15.5185 65.6848 10.506 63.6058 10.506C62.1818 10.506 61.7545 12.642 61.7545 14.3793C61.7545 18.2526 62.609 23.2652 64.688 23.2652ZM44.7205 21.2419V13.894C45.7173 12.3276 46.6002 11.815 47.3977 11.815C48.2806 11.815 48.7078 12.413 48.7078 13.6662V21.2419C48.7078 23.2071 48.423 23.7767 47.1413 23.7767V24.6026H55.8278V23.7767C54.176 23.7767 53.8342 23.2071 53.8342 21.2419V13.4383C53.8342 9.99221 52.2393 8.68212 50.1887 8.68212C47.7964 8.68212 46.2015 10.1916 44.806 12.2422H44.7205V1.56203L44.1794 0.992423L37.4011 4.66639L37.7713 5.40688C39.5941 4.41006 39.5941 4.86575 39.5941 6.83089L39.6225 21.2419C39.6225 23.2071 39.2238 23.7767 37.515 23.7767V24.6026H46.3154V23.7767C45.0053 23.7767 44.7205 23.2071 44.7205 21.2419Z" fill="black"/>
</svg>
