<svg width="26" height="25" fill="none" xmlns="http://www.w3.org/2000/svg"><path d="M25.028 7.898c-.76-.824-1.675-1.24-2.742-1.249-1.066-.007-2.005.358-2.813 1.097-.754.69-1.149 1.5-1.188 2.435-.016.34.01.659.072.952a.888.888 0 0 1-.64 1.054l-.064.017a.884.884 0 0 1-1.104-.944l.507-4.876c.071-1.066.06-1.9-.034-2.501-.093-.601-.235-1.11-.426-1.527-.468-1.016-1.21-1.714-2.226-2.09-1.017-.377-1.99-.353-2.92.07C10.428.8 9.747 1.538 9.41 2.545c-.337 1.007-.278 2.007.179 3.001.426.926 1.078 1.551 1.959 1.878.322.12.633.195.932.225a.89.89 0 0 1 .81.932l-.004.065a.886.886 0 0 1-1.243.753L7.539 7.413c-.996-.397-1.797-.644-2.4-.742-.604-.096-1.134-.12-1.592-.067-1.115.128-2.012.615-2.685 1.46-.675.847-.953 1.776-.836 2.786.129 1.112.623 1.984 1.48 2.614.859.63 1.834.884 2.925.758 1.016-.116 1.815-.54 2.399-1.274.214-.267.382-.538.504-.813a.894.894 0 0 1 1.14-.478l.062.024a.88.88 0 0 1 .335 1.409l-3.29 3.648c-.686.82-1.17 1.502-1.45 2.043-.278.541-.465 1.036-.556 1.485-.222 1.095-.034 2.094.566 2.993.6.9 1.402 1.45 2.403 1.651 1.103.221 2.088.024 2.957-.593.867-.618 1.41-1.462 1.628-2.533.202-.998.043-1.886-.477-2.665a3.785 3.785 0 0 0-.621-.728.885.885 0 0 1-.105-1.227l.042-.051a.888.888 0 0 1 1.45.118l2.47 4.24c.571.904 1.074 1.573 1.504 2.005.431.43.846.76 1.247.985.979.549 1.992.679 3.035.39 1.046-.29 1.82-.88 2.322-1.765.552-.975.668-1.97.346-2.982-.322-1.011-.961-1.786-1.918-2.323-.891-.5-1.788-.624-2.694-.373a3.811 3.811 0 0 0-.888.363.895.895 0 0 1-1.205-.28l-.036-.056a.88.88 0 0 1 .561-1.336l4.817-1.027c1.04-.262 1.834-.53 2.38-.804.544-.275.987-.566 1.326-.876.828-.756 1.265-1.675 1.31-2.752.046-1.079-.277-1.993-.968-2.742h.001Z" fill="#000"/></svg>